<svg xmlns="http://www.w3.org/2000/svg" width="560" height="390" viewBox="0 0 560 390">
<rect width="100%" height="100%" fill="white" />
<text x="280" y="28" text-anchor="middle" font-size="20" font-family="Arial">Learned Exercise Region</text>
<rect x="70" y="55" width="27" height="27" fill="#1f6feb" opacity="0.78" />
<rect x="98" y="55" width="27" height="27" fill="#1f6feb" opacity="0.78" />
<rect x="126" y="55" width="27" height="27" fill="#1f6feb" opacity="0.78" />
<rect x="154" y="55" width="27" height="27" fill="#1f6feb" opacity="0.78" />
<rect x="182" y="55" width="27" height="27" fill="#1f6feb" opacity="0.78" />
<rect x="210" y="55" width="27" height="27" fill="#d73a49" opacity="0.78" />
<rect x="238" y="55" width="27" height="27" fill="#1f6feb" opacity="0.78" />
<rect x="266" y="55" width="27" height="27" fill="#1f6feb" opacity="0.78" />
<rect x="294" y="55" width="27" height="27" fill="#1f6feb" opacity="0.78" />
<rect x="322" y="55" width="27" height="27" fill="#1f6feb" opacity="0.78" />
<rect x="350" y="55" width="27" height="27" fill="#1f6feb" opacity="0.78" />
<rect x="378" y="55" width="27" height="27" fill="#1f6feb" opacity="0.78" />
<rect x="406" y="55" width="27" height="27" fill="#1f6feb" opacity="0.78" />
<rect x="434" y="55" width="27" height="27" fill="#1f6feb" opacity="0.78" />
<rect x="462" y="55" width="27" height="27" fill="#1f6feb" opacity="0.78" />
<rect x="70" y="83" width="27" height="27" fill="#1f6feb" opacity="0.78" />
<rect x="98" y="83" width="27" height="27" fill="#1f6feb" opacity="0.78" />
<rect x="126" y="83" width="27" height="27" fill="#1f6feb" opacity="0.78" />
<rect x="154" y="83" width="27" height="27" fill="#1f6feb" opacity="0.78" />
<rect x="182" y="83" width="27" height="27" fill="#d73a49" opacity="0.78" />
<rect x="210" y="83" width="27" height="27" fill="#d73a49" opacity="0.78" />
<rect x="238" y="83" width="27" height="27" fill="#1f6feb" opacity="0.78" />
<rect x="266" y="83" width="27" height="27" fill="#1f6feb" opacity="0.78" />
<rect x="294" y="83" width="27" height="27" fill="#1f6feb" opacity="0.78" />
<rect x="322" y="83" width="27" height="27" fill="#1f6feb" opacity="0.78" />
<rect x="350" y="83" width="27" height="27" fill="#1f6feb" opacity="0.78" />
<rect x="378" y="83" width="27" height="27" fill="#1f6feb" opacity="0.78" />
<rect x="406" y="83" width="27" height="27" fill="#1f6feb" opacity="0.78" />
<rect x="434" y="83" width="27" height="27" fill="#1f6feb" opacity="0.78" />
<rect x="462" y="83" width="27" height="27" fill="#1f6feb" opacity="0.78" />
<rect x="70" y="111" width="27" height="27" fill="#1f6feb" opacity="0.78" />
<rect x="98" y="111" width="27" height="27" fill="#1f6feb" opacity="0.78" />
<rect x="126" y="111" width="27" height="27" fill="#1f6feb" opacity="0.78" />
<rect x="154" y="111" width="27" height="27" fill="#1f6feb" opacity="0.78" />
<rect x="182" y="111" width="27" height="27" fill="#d73a49" opacity="0.78" />
<rect x="210" y="111" width="27" height="27" fill="#1f6feb" opacity="0.78" />
<rect x="238" y="111" width="27" height="27" fill="#d73a49" opacity="0.78" />
<rect x="266" y="111" width="27" height="27" fill="#1f6feb" opacity="0.78" />
<rect x="294" y="111" width="27" height="27" fill="#1f6feb" opacity="0.78" />
<rect x="322" y="111" width="27" height="27" fill="#1f6feb" opacity="0.78" />
<rect x="350" y="111" width="27" height="27" fill="#1f6feb" opacity="0.78" />
<rect x="378" y="111" width="27" height="27" fill="#1f6feb" opacity="0.78" />
<rect x="406" y="111" width="27" height="27" fill="#1f6feb" opacity="0.78" />
<rect x="434" y="111" width="27" height="27" fill="#1f6feb" opacity="0.78" />
<rect x="462" y="111" width="27" height="27" fill="#1f6feb" opacity="0.78" />
<rect x="70" y="139" width="27" height="27" fill="#1f6feb" opacity="0.78" />
<rect x="98" y="139" width="27" height="27" fill="#1f6feb" opacity="0.78" />
<rect x="126" y="139" width="27" height="27" fill="#1f6feb" opacity="0.78" />
<rect x="154" y="139" width="27" height="27" fill="#d73a49" opacity="0.78" />
<rect x="182" y="139" width="27" height="27" fill="#1f6feb" opacity="0.78" />
<rect x="210" y="139" width="27" height="27" fill="#d73a49" opacity="0.78" />
<rect x="238" y="139" width="27" height="27" fill="#1f6feb" opacity="0.78" />
<rect x="266" y="139" width="27" height="27" fill="#1f6feb" opacity="0.78" />
<rect x="294" y="139" width="27" height="27" fill="#1f6feb" opacity="0.78" />
<rect x="322" y="139" width="27" height="27" fill="#1f6feb" opacity="0.78" />
<rect x="350" y="139" width="27" height="27" fill="#1f6feb" opacity="0.78" />
<rect x="378" y="139" width="27" height="27" fill="#1f6feb" opacity="0.78" />
<rect x="406" y="139" width="27" height="27" fill="#1f6feb" opacity="0.78" />
<rect x="434" y="139" width="27" height="27" fill="#1f6feb" opacity="0.78" />
<rect x="462" y="139" width="27" height="27" fill="#1f6feb" opacity="0.78" />
<rect x="70" y="167" width="27" height="27" fill="#1f6feb" opacity="0.78" />
<rect x="98" y="167" width="27" height="27" fill="#1f6feb" opacity="0.78" />
<rect x="126" y="167" width="27" height="27" fill="#1f6feb" opacity="0.78" />
<rect x="154" y="167" width="27" height="27" fill="#1f6feb" opacity="0.78" />
<rect x="182" y="167" width="27" height="27" fill="#1f6feb" opacity="0.78" />
<rect x="210" y="167" width="27" height="27" fill="#1f6feb" opacity="0.78" />
<rect x="238" y="167" width="27" height="27" fill="#d73a49" opacity="0.78" />
<rect x="266" y="167" width="27" height="27" fill="#1f6feb" opacity="0.78" />
<rect x="294" y="167" width="27" height="27" fill="#1f6feb" opacity="0.78" />
<rect x="322" y="167" width="27" height="27" fill="#1f6feb" opacity="0.78" />
<rect x="350" y="167" width="27" height="27" fill="#1f6feb" opacity="0.78" />
<rect x="378" y="167" width="27" height="27" fill="#1f6feb" opacity="0.78" />
<rect x="406" y="167" width="27" height="27" fill="#1f6feb" opacity="0.78" />
<rect x="434" y="167" width="27" height="27" fill="#1f6feb" opacity="0.78" />
<rect x="462" y="167" width="27" height="27" fill="#1f6feb" opacity="0.78" />
<rect x="70" y="195" width="27" height="27" fill="#1f6feb" opacity="0.78" />
<rect x="98" y="195" width="27" height="27" fill="#1f6feb" opacity="0.78" />
<rect x="126" y="195" width="27" height="27" fill="#1f6feb" opacity="0.78" />
<rect x="154" y="195" width="27" height="27" fill="#1f6feb" opacity="0.78" />
<rect x="182" y="195" width="27" height="27" fill="#1f6feb" opacity="0.78" />
<rect x="210" y="195" width="27" height="27" fill="#d73a49" opacity="0.78" />
<rect x="238" y="195" width="27" height="27" fill="#1f6feb" opacity="0.78" />
<rect x="266" y="195" width="27" height="27" fill="#d73a49" opacity="0.78" />
<rect x="294" y="195" width="27" height="27" fill="#1f6feb" opacity="0.78" />
<rect x="322" y="195" width="27" height="27" fill="#1f6feb" opacity="0.78" />
<rect x="350" y="195" width="27" height="27" fill="#1f6feb" opacity="0.78" />
<rect x="378" y="195" width="27" height="27" fill="#1f6feb" opacity="0.78" />
<rect x="406" y="195" width="27" height="27" fill="#1f6feb" opacity="0.78" />
<rect x="434" y="195" width="27" height="27" fill="#1f6feb" opacity="0.78" />
<rect x="462" y="195" width="27" height="27" fill="#1f6feb" opacity="0.78" />
<rect x="70" y="223" width="27" height="27" fill="#1f6feb" opacity="0.78" />
<rect x="98" y="223" width="27" height="27" fill="#1f6feb" opacity="0.78" />
<rect x="126" y="223" width="27" height="27" fill="#1f6feb" opacity="0.78" />
<rect x="154" y="223" width="27" height="27" fill="#d73a49" opacity="0.78" />
<rect x="182" y="223" width="27" height="27" fill="#1f6feb" opacity="0.78" />
<rect x="210" y="223" width="27" height="27" fill="#d73a49" opacity="0.78" />
<rect x="238" y="223" width="27" height="27" fill="#1f6feb" opacity="0.78" />
<rect x="266" y="223" width="27" height="27" fill="#1f6feb" opacity="0.78" />
<rect x="294" y="223" width="27" height="27" fill="#1f6feb" opacity="0.78" />
<rect x="322" y="223" width="27" height="27" fill="#1f6feb" opacity="0.78" />
<rect x="350" y="223" width="27" height="27" fill="#1f6feb" opacity="0.78" />
<rect x="378" y="223" width="27" height="27" fill="#1f6feb" opacity="0.78" />
<rect x="406" y="223" width="27" height="27" fill="#1f6feb" opacity="0.78" />
<rect x="434" y="223" width="27" height="27" fill="#1f6feb" opacity="0.78" />
<rect x="462" y="223" width="27" height="27" fill="#1f6feb" opacity="0.78" />
<rect x="70" y="251" width="27" height="27" fill="#1f6feb" opacity="0.78" />
<rect x="98" y="251" width="27" height="27" fill="#d73a49" opacity="0.78" />
<rect x="126" y="251" width="27" height="27" fill="#1f6feb" opacity="0.78" />
<rect x="154" y="251" width="27" height="27" fill="#1f6feb" opacity="0.78" />
<rect x="182" y="251" width="27" height="27" fill="#1f6feb" opacity="0.78" />
<rect x="210" y="251" width="27" height="27" fill="#1f6feb" opacity="0.78" />
<rect x="238" y="251" width="27" height="27" fill="#d73a49" opacity="0.78" />
<rect x="266" y="251" width="27" height="27" fill="#d73a49" opacity="0.78" />
<rect x="294" y="251" width="27" height="27" fill="#1f6feb" opacity="0.78" />
<rect x="322" y="251" width="27" height="27" fill="#1f6feb" opacity="0.78" />
<rect x="350" y="251" width="27" height="27" fill="#1f6feb" opacity="0.78" />
<rect x="378" y="251" width="27" height="27" fill="#1f6feb" opacity="0.78" />
<rect x="406" y="251" width="27" height="27" fill="#1f6feb" opacity="0.78" />
<rect x="434" y="251" width="27" height="27" fill="#1f6feb" opacity="0.78" />
<rect x="462" y="251" width="27" height="27" fill="#1f6feb" opacity="0.78" />
<rect x="70" y="279" width="27" height="27" fill="#1f6feb" opacity="0.78" />
<rect x="98" y="279" width="27" height="27" fill="#1f6feb" opacity="0.78" />
<rect x="126" y="279" width="27" height="27" fill="#1f6feb" opacity="0.78" />
<rect x="154" y="279" width="27" height="27" fill="#1f6feb" opacity="0.78" />
<rect x="182" y="279" width="27" height="27" fill="#1f6feb" opacity="0.78" />
<rect x="210" y="279" width="27" height="27" fill="#1f6feb" opacity="0.78" />
<rect x="238" y="279" width="27" height="27" fill="#1f6feb" opacity="0.78" />
<rect x="266" y="279" width="27" height="27" fill="#1f6feb" opacity="0.78" />
<rect x="294" y="279" width="27" height="27" fill="#1f6feb" opacity="0.78" />
<rect x="322" y="279" width="27" height="27" fill="#1f6feb" opacity="0.78" />
<rect x="350" y="279" width="27" height="27" fill="#1f6feb" opacity="0.78" />
<rect x="378" y="279" width="27" height="27" fill="#1f6feb" opacity="0.78" />
<rect x="406" y="279" width="27" height="27" fill="#1f6feb" opacity="0.78" />
<rect x="434" y="279" width="27" height="27" fill="#1f6feb" opacity="0.78" />
<rect x="462" y="279" width="27" height="27" fill="#1f6feb" opacity="0.78" />
<rect x="70" y="307" width="27" height="27" fill="#1f6feb" opacity="0.78" />
<rect x="98" y="307" width="27" height="27" fill="#1f6feb" opacity="0.78" />
<rect x="126" y="307" width="27" height="27" fill="#1f6feb" opacity="0.78" />
<rect x="154" y="307" width="27" height="27" fill="#1f6feb" opacity="0.78" />
<rect x="182" y="307" width="27" height="27" fill="#1f6feb" opacity="0.78" />
<rect x="210" y="307" width="27" height="27" fill="#1f6feb" opacity="0.78" />
<rect x="238" y="307" width="27" height="27" fill="#1f6feb" opacity="0.78" />
<rect x="266" y="307" width="27" height="27" fill="#1f6feb" opacity="0.78" />
<rect x="294" y="307" width="27" height="27" fill="#1f6feb" opacity="0.78" />
<rect x="322" y="307" width="27" height="27" fill="#1f6feb" opacity="0.78" />
<rect x="350" y="307" width="27" height="27" fill="#1f6feb" opacity="0.78" />
<rect x="378" y="307" width="27" height="27" fill="#1f6feb" opacity="0.78" />
<rect x="406" y="307" width="27" height="27" fill="#1f6feb" opacity="0.78" />
<rect x="434" y="307" width="27" height="27" fill="#1f6feb" opacity="0.78" />
<rect x="462" y="307" width="27" height="27" fill="#1f6feb" opacity="0.78" />
<text x="280" y="365" text-anchor="middle" font-size="13" font-family="Arial">Moneyness S/K increases left to right</text>
<text x="20" y="190" text-anchor="middle" font-size="13" font-family="Arial" transform="rotate(-90 20 190)">Time fraction increases downward</text>
<text x="525" y="90" font-size="13" font-family="Arial" fill="#d73a49">red = exercise</text>
<text x="525" y="112" font-size="13" font-family="Arial" fill="#1f6feb">blue = hold</text>
</svg>