<svg xmlns="http://www.w3.org/2000/svg" width="760" height="460" viewBox="0 0 760 460">
<rect width="100%" height="100%" fill="white" />
<text x="380" y="28" text-anchor="middle" font-size="20" font-family="Arial">MLP Training Loss</text>
<rect x="70" y="50" width="620" height="320" fill="none" stroke="#222" />
<polyline points="70.0,78.6 77.4,260.6 84.8,307.6 92.1,325.0 99.5,334.0 106.9,339.9 114.3,344.3 121.7,347.6 129.0,350.2 136.4,352.4 143.8,354.1 151.2,355.6 158.6,356.8 166.0,357.9 173.3,358.8 180.7,359.6 188.1,360.3 195.5,360.9 202.9,361.4 210.2,361.9 217.6,362.4 225.0,362.8 232.4,363.1 239.8,363.5 247.1,363.8 254.5,364.1 261.9,364.3 269.3,364.6 276.7,364.8 284.0,365.1 291.4,365.3 298.8,365.5 306.2,365.6 313.6,365.8 321.0,366.0 328.3,366.1 335.7,366.3 343.1,366.4 350.5,366.6 357.9,366.7 365.2,366.8 372.6,366.9 380.0,367.0 387.4,367.2 394.8,367.3 402.1,367.4 409.5,367.5 416.9,367.6 424.3,367.7 431.7,367.7 439.0,367.8 446.4,367.9 453.8,368.0 461.2,368.1 468.6,368.1 476.0,368.2 483.3,368.3 490.7,368.4 498.1,368.4 505.5,368.5 512.9,368.6 520.2,368.6 527.6,368.7 535.0,368.7 542.4,368.8 549.8,368.9 557.1,368.9 564.5,369.0 571.9,369.0 579.3,369.1 586.7,369.1 594.0,369.2 601.4,369.2 608.8,369.3 616.2,369.3 623.6,369.4 631.0,369.4 638.3,369.4 645.7,369.5 653.1,369.5 660.5,369.6 667.9,369.6 675.2,369.7 682.6,369.7 690.0,369.7" fill="none" stroke="#1f6feb" stroke-width="2" />
<text x="560" y="80" font-size="13" font-family="Arial" fill="#1f6feb">train</text>
<polyline points="70.0,50.0 77.4,256.4 84.8,309.3 92.1,328.1 99.5,337.3 106.9,343.0 114.3,347.1 121.7,350.2 129.0,352.6 136.4,354.6 143.8,356.2 151.2,357.5 158.6,358.6 166.0,359.5 173.3,360.3 180.7,361.0 188.1,361.6 195.5,362.1 202.9,362.6 210.2,363.0 217.6,363.4 225.0,363.8 232.4,364.1 239.8,364.4 247.1,364.7 254.5,364.9 261.9,365.2 269.3,365.4 276.7,365.6 284.0,365.8 291.4,365.9 298.8,366.1 306.2,366.3 313.6,366.4 321.0,366.6 328.3,366.7 335.7,366.8 343.1,367.0 350.5,367.1 357.9,367.2 365.2,367.3 372.6,367.4 380.0,367.5 387.4,367.6 394.8,367.7 402.1,367.8 409.5,367.9 416.9,368.0 424.3,368.1 431.7,368.1 439.0,368.2 446.4,368.3 453.8,368.4 461.2,368.4 468.6,368.5 476.0,368.6 483.3,368.6 490.7,368.7 498.1,368.8 505.5,368.8 512.9,368.9 520.2,369.0 527.6,369.0 535.0,369.1 542.4,369.1 549.8,369.2 557.1,369.2 564.5,369.3 571.9,369.3 579.3,369.4 586.7,369.4 594.0,369.5 601.4,369.5 608.8,369.6 616.2,369.6 623.6,369.7 631.0,369.7 638.3,369.7 645.7,369.8 653.1,369.8 660.5,369.9 667.9,369.9 675.2,369.9 682.6,370.0 690.0,370.0" fill="none" stroke="#d73a49" stroke-width="2" />
<text x="560" y="102" font-size="13" font-family="Arial" fill="#d73a49">validation</text>
<text x="380" y="425" text-anchor="middle" font-size="14" font-family="Arial">epoch</text>
<text x="20" y="210" text-anchor="middle" font-size="14" font-family="Arial" transform="rotate(-90 20 210)">scaled MSE</text>
</svg>