<svg xmlns="http://www.w3.org/2000/svg" width="820" height="520" viewBox="0 0 820 520">
<rect width="100%" height="100%" fill="white" />
<text x="410" y="32" text-anchor="middle" font-size="22" font-family="Arial">American Put Early-Exercise Boundary</text>
<line x1="85.0" y1="60" x2="85.0" y2="420" stroke="#ddd" />
<line x1="85" y1="60.0" x2="735" y2="60.0" stroke="#ddd" />
<line x1="215.0" y1="60" x2="215.0" y2="420" stroke="#ddd" />
<line x1="85" y1="132.0" x2="735" y2="132.0" stroke="#ddd" />
<line x1="345.0" y1="60" x2="345.0" y2="420" stroke="#ddd" />
<line x1="85" y1="204.0" x2="735" y2="204.0" stroke="#ddd" />
<line x1="475.0" y1="60" x2="475.0" y2="420" stroke="#ddd" />
<line x1="85" y1="276.0" x2="735" y2="276.0" stroke="#ddd" />
<line x1="605.0" y1="60" x2="605.0" y2="420" stroke="#ddd" />
<line x1="85" y1="348.0" x2="735" y2="348.0" stroke="#ddd" />
<line x1="735.0" y1="60" x2="735.0" y2="420" stroke="#ddd" />
<line x1="85" y1="420.0" x2="735" y2="420.0" stroke="#ddd" />
<line x1="85" y1="420" x2="735" y2="420" stroke="#222" />
<line x1="85" y1="60" x2="85" y2="420" stroke="#222" />
<polyline points="85.0,420.0 86.4,407.4 87.7,420.0 89.1,407.4 90.5,420.0 91.9,407.4 93.2,420.0 94.6,407.4 96.0,420.0 97.3,407.4 98.7,420.0 100.1,407.4 101.5,420.0 102.8,407.4 104.2,420.0 105.6,407.4 106.9,420.0 108.3,407.4 109.7,420.0 111.1,407.4 112.4,420.0 113.8,407.4 115.2,420.0 116.5,407.4 117.9,420.0 119.3,407.4 120.7,420.0 122.0,407.4 123.4,420.0 124.8,407.4 126.1,420.0 127.5,407.4 128.9,420.0 130.3,407.4 131.6,420.0 133.0,407.4 134.4,420.0 135.7,407.4 137.1,420.0 138.5,407.4 139.9,420.0 141.2,407.4 142.6,420.0 144.0,407.4 145.3,420.0 146.7,407.4 148.1,420.0 149.5,407.4 150.8,420.0 152.2,407.4 153.6,420.0 154.9,407.4 156.3,420.0 157.7,407.4 159.1,420.0 160.4,407.4 161.8,420.0 163.2,407.4 164.5,420.0 165.9,407.4 167.3,420.0 168.6,407.4 170.0,420.0 171.4,407.4 172.8,394.8 174.1,407.4 175.5,394.8 176.9,407.4 178.2,394.8 179.6,407.4 181.0,394.8 182.4,407.4 183.7,394.8 185.1,407.4 186.5,394.8 187.8,407.4 189.2,394.8 190.6,407.4 192.0,394.8 193.3,407.4 194.7,394.8 196.1,407.4 197.4,394.8 198.8,407.4 200.2,394.8 201.6,407.4 202.9,394.8 204.3,407.4 205.7,394.8 207.0,407.4 208.4,394.8 209.8,407.4 211.2,394.8 212.5,407.4 213.9,394.8 215.3,407.4 216.6,394.8 218.0,407.4 219.4,394.8 220.8,407.4 222.1,394.8 223.5,407.4 224.9,394.8 226.2,407.4 227.6,394.8 229.0,407.4 230.4,394.8 231.7,407.4 233.1,394.8 234.5,407.4 235.8,394.8 237.2,407.4 238.6,394.8 240.0,407.4 241.3,394.8 242.7,407.4 244.1,394.8 245.4,407.4 246.8,394.8 248.2,407.4 249.6,394.8 250.9,381.9 252.3,394.8 253.7,381.9 255.0,394.8 256.4,381.9 257.8,394.8 259.2,381.9 260.5,394.8 261.9,381.9 263.3,394.8 264.6,381.9 266.0,394.8 267.4,381.9 268.8,394.8 270.1,381.9 271.5,394.8 272.9,381.9 274.2,394.8 275.6,381.9 277.0,394.8 278.4,381.9 279.7,394.8 281.1,381.9 282.5,394.8 283.8,381.9 285.2,394.8 286.6,381.9 288.0,394.8 289.3,381.9 290.7,394.8 292.1,381.9 293.4,394.8 294.8,381.9 296.2,394.8 297.6,381.9 298.9,394.8 300.3,381.9 301.7,394.8 303.0,381.9 304.4,394.8 305.8,381.9 307.2,394.8 308.5,381.9 309.9,394.8 311.3,381.9 312.6,394.8 314.0,381.9 315.4,394.8 316.8,381.9 318.1,368.9 319.5,381.9 320.9,368.9 322.2,381.9 323.6,368.9 325.0,381.9 326.4,368.9 327.7,381.9 329.1,368.9 330.5,381.9 331.8,368.9 333.2,381.9 334.6,368.9 335.9,381.9 337.3,368.9 338.7,381.9 340.1,368.9 341.4,381.9 342.8,368.9 344.2,381.9 345.5,368.9 346.9,381.9 348.3,368.9 349.7,381.9 351.0,368.9 352.4,381.9 353.8,368.9 355.1,381.9 356.5,368.9 357.9,381.9 359.3,368.9 360.6,381.9 362.0,368.9 363.4,381.9 364.7,368.9 366.1,381.9 367.5,368.9 368.9,381.9 370.2,368.9 371.6,381.9 373.0,368.9 374.3,355.8 375.7,368.9 377.1,355.8 378.5,368.9 379.8,355.8 381.2,368.9 382.6,355.8 383.9,368.9 385.3,355.8 386.7,368.9 388.1,355.8 389.4,368.9 390.8,355.8 392.2,368.9 393.5,355.8 394.9,368.9 396.3,355.8 397.7,368.9 399.0,355.8 400.4,368.9 401.8,355.8 403.1,368.9 404.5,355.8 405.9,368.9 407.3,355.8 408.6,368.9 410.0,355.8 411.4,368.9 412.7,355.8 414.1,368.9 415.5,355.8 416.9,368.9 418.2,355.8 419.6,368.9 421.0,355.8 422.3,368.9 423.7,355.8 425.1,368.9 426.5,355.8 427.8,342.5 429.2,355.8 430.6,342.5 431.9,355.8 433.3,342.5 434.7,355.8 436.1,342.5 437.4,355.8 438.8,342.5 440.2,355.8 441.5,342.5 442.9,355.8 444.3,342.5 445.7,355.8 447.0,342.5 448.4,355.8 449.8,342.5 451.1,355.8 452.5,342.5 453.9,355.8 455.3,342.5 456.6,355.8 458.0,342.5 459.4,355.8 460.7,342.5 462.1,355.8 463.5,342.5 464.9,355.8 466.2,342.5 467.6,355.8 469.0,342.5 470.3,355.8 471.7,342.5 473.1,329.1 474.5,342.5 475.8,329.1 477.2,342.5 478.6,329.1 479.9,342.5 481.3,329.1 482.7,342.5 484.1,329.1 485.4,342.5 486.8,329.1 488.2,342.5 489.5,329.1 490.9,342.5 492.3,329.1 493.6,342.5 495.0,329.1 496.4,342.5 497.8,329.1 499.1,342.5 500.5,329.1 501.9,342.5 503.2,329.1 504.6,342.5 506.0,329.1 507.4,342.5 508.7,329.1 510.1,342.5 511.5,329.1 512.8,315.5 514.2,329.1 515.6,315.5 517.0,329.1 518.3,315.5 519.7,329.1 521.1,315.5 522.4,329.1 523.8,315.5 525.2,329.1 526.6,315.5 527.9,329.1 529.3,315.5 530.7,329.1 532.0,315.5 533.4,329.1 534.8,315.5 536.2,329.1 537.5,315.5 538.9,329.1 540.3,315.5 541.6,329.1 543.0,315.5 544.4,329.1 545.8,315.5 547.1,301.8 548.5,315.5 549.9,301.8 551.2,315.5 552.6,301.8 554.0,315.5 555.4,301.8 556.7,315.5 558.1,301.8 559.5,315.5 560.8,301.8 562.2,315.5 563.6,301.8 565.0,315.5 566.3,301.8 567.7,315.5 569.1,301.8 570.4,315.5 571.8,301.8 573.2,315.5 574.6,301.8 575.9,315.5 577.3,301.8 578.7,287.9 580.0,301.8 581.4,287.9 582.8,301.8 584.2,287.9 585.5,301.8 586.9,287.9 588.3,301.8 589.6,287.9 591.0,301.8 592.4,287.9 593.8,301.8 595.1,287.9 596.5,301.8 597.9,287.9 599.2,301.8 600.6,287.9 602.0,301.8 603.4,287.9 604.7,273.9 606.1,287.9 607.5,273.9 608.8,287.9 610.2,273.9 611.6,287.9 613.0,273.9 614.3,287.9 615.7,273.9 617.1,287.9 618.4,273.9 619.8,287.9 621.2,273.9 622.6,287.9 623.9,273.9 625.3,287.9 626.7,273.9 628.0,259.7 629.4,273.9 630.8,259.7 632.2,273.9 633.5,259.7 634.9,273.9 636.3,259.7 637.6,273.9 639.0,259.7 640.4,273.9 641.8,259.7 643.1,273.9 644.5,259.7 645.9,245.4 647.2,259.7 648.6,245.4 650.0,259.7 651.4,245.4 652.7,259.7 654.1,245.4 655.5,259.7 656.8,245.4 658.2,259.7 659.6,245.4 660.9,259.7 662.3,245.4 663.7,230.8 665.1,245.4 666.4,230.8 667.8,245.4 669.2,230.8 670.5,245.4 671.9,230.8 673.3,245.4 674.7,230.8 676.0,245.4 677.4,230.8 678.8,216.2 680.1,230.8 681.5,216.2 682.9,230.8 684.3,216.2 685.6,230.8 687.0,216.2 688.4,230.8 689.7,216.2 691.1,201.3 692.5,216.2 693.9,201.3 695.2,216.2 696.6,201.3 698.0,216.2 699.3,201.3 700.7,186.3 702.1,201.3 703.5,186.3 704.8,201.3 706.2,186.3 707.6,201.3 708.9,186.3 710.3,171.1 711.7,186.3 713.1,171.1 714.4,186.3 715.8,171.1 717.2,155.8 718.5,171.1 719.9,155.8 721.3,140.3 722.7,155.8 724.0,140.3 725.4,124.6 726.8,140.3 728.1,124.6 729.5,108.7 730.9,92.6 732.3,76.4 733.6,60.0 735.0,76.4" fill="none" stroke="#1f6feb" stroke-width="2" />
<text x="410" y="478" text-anchor="middle" font-size="15" font-family="Arial">Time t</text>
<text x="22" y="250" text-anchor="middle" font-size="15" font-family="Arial" transform="rotate(-90 22 250)">Highest exercise stock price</text>
<text x="92" y="445" font-size="13" font-family="Arial">t=0.05</text>
<text x="690" y="445" font-size="13" font-family="Arial">t=1.00</text>
<text x="32" y="68" font-size="13" font-family="Arial">S=98.89</text>
<text x="32" y="420" font-size="13" font-family="Arial">S=74.77</text>
</svg>