<svg xmlns="http://www.w3.org/2000/svg" width="760" height="460" viewBox="0 0 760 460">
<rect width="100%" height="100%" fill="white" />
<text x="380" y="28" text-anchor="middle" font-size="20" font-family="Arial">Linear Regression by Gradient Descent</text>
<rect x="70" y="50" width="620" height="320" fill="none" stroke="#222" />
<polyline points="70.0,329.6 72.6,342.0 75.2,323.1 77.8,320.2 80.4,347.9 83.0,340.4 85.6,325.1 88.2,328.5 90.8,324.5 93.3,331.8 95.9,313.5 98.5,313.5 101.1,319.5 103.7,307.9 106.3,313.4 108.9,325.6 111.5,312.3 114.1,324.5 116.7,305.2 119.3,313.4 121.9,313.7 124.5,317.6 127.1,297.6 129.7,310.2 132.3,311.9 134.9,310.1 137.4,300.3 140.0,300.9 142.6,299.4 145.2,298.1 147.8,280.1 150.4,304.4 153.0,304.4 155.6,306.4 158.2,291.1 160.8,284.9 163.4,296.3 166.0,302.5 168.6,301.3 171.2,285.5 173.8,283.6 176.4,284.5 179.0,295.5 181.5,285.5 184.1,285.6 186.7,283.6 189.3,276.0 191.9,281.5 194.5,275.9 197.1,280.9 199.7,277.7 202.3,273.2 204.9,293.0 207.5,280.6 210.1,281.1 212.7,281.7 215.3,277.0 217.9,258.4 220.5,280.8 223.1,261.5 225.6,286.9 228.2,272.4 230.8,266.4 233.4,261.2 236.0,258.9 238.6,257.0 241.2,267.4 243.8,267.4 246.4,253.3 249.0,262.7 251.6,272.4 254.2,270.0 256.8,266.8 259.4,251.6 262.0,254.1 264.6,247.6 267.2,257.7 269.7,250.8 272.3,245.1 274.9,253.4 277.5,244.7 280.1,254.8 282.7,250.8 285.3,250.0 287.9,257.0 290.5,239.2 293.1,247.7 295.7,241.9 298.3,236.2 300.9,235.5 303.5,232.2 306.1,238.8 308.7,241.0 311.3,236.5 313.8,251.5 316.4,248.1 319.0,245.8 321.6,241.5 324.2,226.6 326.8,238.5 329.4,232.2 332.0,214.5 334.6,229.9 337.2,218.0 339.8,233.6 342.4,225.3 345.0,231.7 347.6,224.5 350.2,211.7 352.8,236.3 355.4,213.7 357.9,214.6 360.5,221.9 363.1,229.3 365.7,213.1 368.3,218.1 370.9,209.5 373.5,210.5 376.1,193.7 378.7,211.0 381.3,217.8 383.9,204.8 386.5,203.3 389.1,190.9 391.7,195.1 394.3,198.8 396.9,186.8 399.5,212.2 402.1,205.6 404.6,207.5 407.2,201.1 409.8,209.9 412.4,188.8 415.0,196.3 417.6,207.7 420.2,202.1 422.8,187.8 425.4,181.5 428.0,169.0 430.6,158.8 433.2,182.6 435.8,195.6 438.4,205.9 441.0,181.0 443.6,190.7 446.2,185.7 448.7,186.6 451.3,180.9 453.9,167.8 456.5,175.8 459.1,177.9 461.7,185.6 464.3,190.9 466.9,178.1 469.5,172.7 472.1,153.5 474.7,168.8 477.3,159.3 479.9,173.0 482.5,178.8 485.1,175.5 487.7,172.1 490.3,142.6 492.8,171.0 495.4,153.4 498.0,169.7 500.6,150.4 503.2,154.8 505.8,159.2 508.4,157.0 511.0,162.0 513.6,150.0 516.2,158.0 518.8,164.6 521.4,164.1 524.0,148.6 526.6,133.5 529.2,146.6 531.8,148.4 534.4,143.3 536.9,132.1 539.5,141.9 542.1,147.1 544.7,130.9 547.3,136.6 549.9,124.6 552.5,137.0 555.1,150.0 557.7,150.4 560.3,119.3 562.9,117.5 565.5,135.4 568.1,136.4 570.7,117.0 573.3,141.5 575.9,138.4 578.5,122.0 581.0,131.3 583.6,126.4 586.2,126.9 588.8,120.9 591.4,109.2 594.0,121.3 596.6,114.7 599.2,140.5 601.8,119.5 604.4,126.4 607.0,129.1 609.6,124.7 612.2,118.2 614.8,104.7 617.4,126.0 620.0,111.4 622.6,115.5 625.1,112.9 627.7,98.6 630.3,102.2 632.9,93.2 635.5,107.0 638.1,111.4 640.7,105.6 643.3,99.9 645.9,99.6 648.5,111.1 651.1,98.3 653.7,95.9 656.3,72.1 658.9,77.4 661.5,103.6 664.1,96.9 666.7,107.6 669.2,97.8 671.8,87.8 674.4,77.8 677.0,96.1 679.6,94.3 682.2,108.1 684.8,87.3 687.4,95.2 690.0,88.9" fill="none" stroke="#1f6feb" stroke-width="2" />
<text x="560" y="80" font-size="13" font-family="Arial" fill="#1f6feb">synthetic data</text>
<polyline points="70.0,333.2 72.6,332.2 75.2,331.2 77.8,330.1 80.4,329.1 83.0,328.0 85.6,327.0 88.2,326.0 90.8,324.9 93.3,323.9 95.9,322.8 98.5,321.8 101.1,320.7 103.7,319.7 106.3,318.7 108.9,317.6 111.5,316.6 114.1,315.5 116.7,314.5 119.3,313.5 121.9,312.4 124.5,311.4 127.1,310.3 129.7,309.3 132.3,308.2 134.9,307.2 137.4,306.2 140.0,305.1 142.6,304.1 145.2,303.0 147.8,302.0 150.4,301.0 153.0,299.9 155.6,298.9 158.2,297.8 160.8,296.8 163.4,295.7 166.0,294.7 168.6,293.7 171.2,292.6 173.8,291.6 176.4,290.5 179.0,289.5 181.5,288.5 184.1,287.4 186.7,286.4 189.3,285.3 191.9,284.3 194.5,283.2 197.1,282.2 199.7,281.2 202.3,280.1 204.9,279.1 207.5,278.0 210.1,277.0 212.7,276.0 215.3,274.9 217.9,273.9 220.5,272.8 223.1,271.8 225.6,270.7 228.2,269.7 230.8,268.7 233.4,267.6 236.0,266.6 238.6,265.5 241.2,264.5 243.8,263.5 246.4,262.4 249.0,261.4 251.6,260.3 254.2,259.3 256.8,258.2 259.4,257.2 262.0,256.2 264.6,255.1 267.2,254.1 269.7,253.0 272.3,252.0 274.9,251.0 277.5,249.9 280.1,248.9 282.7,247.8 285.3,246.8 287.9,245.7 290.5,244.7 293.1,243.7 295.7,242.6 298.3,241.6 300.9,240.5 303.5,239.5 306.1,238.5 308.7,237.4 311.3,236.4 313.8,235.3 316.4,234.3 319.0,233.2 321.6,232.2 324.2,231.2 326.8,230.1 329.4,229.1 332.0,228.0 334.6,227.0 337.2,226.0 339.8,224.9 342.4,223.9 345.0,222.8 347.6,221.8 350.2,220.7 352.8,219.7 355.4,218.7 357.9,217.6 360.5,216.6 363.1,215.5 365.7,214.5 368.3,213.5 370.9,212.4 373.5,211.4 376.1,210.3 378.7,209.3 381.3,208.2 383.9,207.2 386.5,206.2 389.1,205.1 391.7,204.1 394.3,203.0 396.9,202.0 399.5,201.0 402.1,199.9 404.6,198.9 407.2,197.8 409.8,196.8 412.4,195.7 415.0,194.7 417.6,193.7 420.2,192.6 422.8,191.6 425.4,190.5 428.0,189.5 430.6,188.5 433.2,187.4 435.8,186.4 438.4,185.3 441.0,184.3 443.6,183.2 446.2,182.2 448.7,181.2 451.3,180.1 453.9,179.1 456.5,178.0 459.1,177.0 461.7,176.0 464.3,174.9 466.9,173.9 469.5,172.8 472.1,171.8 474.7,170.7 477.3,169.7 479.9,168.7 482.5,167.6 485.1,166.6 487.7,165.5 490.3,164.5 492.8,163.5 495.4,162.4 498.0,161.4 500.6,160.3 503.2,159.3 505.8,158.2 508.4,157.2 511.0,156.2 513.6,155.1 516.2,154.1 518.8,153.0 521.4,152.0 524.0,151.0 526.6,149.9 529.2,148.9 531.8,147.8 534.4,146.8 536.9,145.7 539.5,144.7 542.1,143.7 544.7,142.6 547.3,141.6 549.9,140.5 552.5,139.5 555.1,138.5 557.7,137.4 560.3,136.4 562.9,135.3 565.5,134.3 568.1,133.2 570.7,132.2 573.3,131.2 575.9,130.1 578.5,129.1 581.0,128.0 583.6,127.0 586.2,126.0 588.8,124.9 591.4,123.9 594.0,122.8 596.6,121.8 599.2,120.7 601.8,119.7 604.4,118.7 607.0,117.6 609.6,116.6 612.2,115.5 614.8,114.5 617.4,113.5 620.0,112.4 622.6,111.4 625.1,110.3 627.7,109.3 630.3,108.2 632.9,107.2 635.5,106.2 638.1,105.1 640.7,104.1 643.3,103.0 645.9,102.0 648.5,101.0 651.1,99.9 653.7,98.9 656.3,97.8 658.9,96.8 661.5,95.7 664.1,94.7 666.7,93.7 669.2,92.6 671.8,91.6 674.4,90.5 677.0,89.5 679.6,88.5 682.2,87.4 684.8,86.4 687.4,85.3 690.0,84.3" fill="none" stroke="#d73a49" stroke-width="2" />
<text x="560" y="102" font-size="13" font-family="Arial" fill="#d73a49">fitted line</text>
<text x="380" y="425" text-anchor="middle" font-size="14" font-family="Arial">x</text>
<text x="20" y="210" text-anchor="middle" font-size="14" font-family="Arial" transform="rotate(-90 20 210)">y</text>
</svg>