<svg xmlns="http://www.w3.org/2000/svg" width="760" height="460" viewBox="0 0 760 460">
<rect width="100%" height="100%" fill="white" />
<text x="380" y="28" text-anchor="middle" font-size="20" font-family="Arial">Training and Validation Loss</text>
<rect x="70" y="50" width="620" height="320" fill="none" stroke="#222" />
<polyline points="70.0,72.1 76.3,311.4 82.5,319.1 88.8,324.8 95.1,329.1 101.3,332.2 107.6,334.6 113.8,336.3 120.1,337.6 126.4,338.6 132.6,339.3 138.9,339.8 145.2,340.2 151.4,340.5 157.7,340.8 163.9,341.0 170.2,341.2 176.5,341.3 182.7,341.5 189.0,341.6 195.3,341.7 201.5,341.8 207.8,342.0 214.0,342.1 220.3,342.2 226.6,342.3 232.8,342.4 239.1,342.5 245.4,342.6 251.6,342.7 257.9,342.8 264.1,342.9 270.4,343.0 276.7,343.1 282.9,343.2 289.2,343.3 295.5,343.4 301.7,343.5 308.0,343.6 314.2,343.7 320.5,343.8 326.8,343.9 333.0,344.0 339.3,344.1 345.6,344.2 351.8,344.3 358.1,344.5 364.3,344.6 370.6,344.7 376.9,344.8 383.1,344.9 389.4,345.0 395.7,345.1 401.9,345.2 408.2,345.2 414.4,345.3 420.7,345.4 427.0,345.5 433.2,345.6 439.5,345.7 445.8,345.8 452.0,345.9 458.3,345.9 464.5,346.0 470.8,346.1 477.1,346.2 483.3,346.2 489.6,346.3 495.9,346.4 502.1,346.4 508.4,346.5 514.6,346.6 520.9,346.6 527.2,346.7 533.4,346.8 539.7,346.8 546.0,346.9 552.2,346.9 558.5,347.0 564.7,347.0 571.0,347.1 577.3,347.1 583.5,347.2 589.8,347.2 596.1,347.3 602.3,347.3 608.6,347.4 614.8,347.4 621.1,347.5 627.4,347.5 633.6,347.6 639.9,347.6 646.2,347.7 652.4,347.7 658.7,347.7 664.9,347.8 671.2,347.8 677.5,347.9 683.7,347.9 690.0,347.9" fill="none" stroke="#1f6feb" stroke-width="2" />
<text x="560" y="80" font-size="13" font-family="Arial" fill="#1f6feb">train MSE</text>
<polyline points="70.0,292.0 76.3,308.3 82.5,316.2 88.8,322.1 95.1,326.4 101.3,329.6 107.6,332.0 113.8,333.7 120.1,335.0 126.4,336.0 132.6,336.7 138.9,337.2 145.2,337.6 151.4,337.9 157.7,338.2 163.9,338.4 170.2,338.5 176.5,338.7 182.7,338.8 189.0,339.0 195.3,339.1 201.5,339.2 207.8,339.3 214.0,339.4 220.3,339.5 226.6,339.6 232.8,339.8 239.1,339.9 245.4,340.0 251.6,340.1 257.9,340.2 264.1,340.3 270.4,340.4 276.7,340.5 282.9,340.6 289.2,340.7 295.5,340.8 301.7,340.9 308.0,341.0 314.2,341.1 320.5,341.2 326.8,341.3 333.0,341.4 339.3,341.5 345.6,341.6 351.8,341.8 358.1,341.9 364.3,342.0 370.6,342.1 376.9,342.2 383.1,342.3 389.4,342.4 395.7,342.5 401.9,342.6 408.2,342.7 414.4,342.8 420.7,342.9 427.0,343.0 433.2,343.1 439.5,343.2 445.8,343.3 452.0,343.4 458.3,343.4 464.5,343.5 470.8,343.6 477.1,343.7 483.3,343.8 489.6,343.8 495.9,343.9 502.1,344.0 508.4,344.1 514.6,344.1 520.9,344.2 527.2,344.3 533.4,344.3 539.7,344.4 546.0,344.5 552.2,344.5 558.5,344.6 564.7,344.7 571.0,344.7 577.3,344.8 583.5,344.8 589.8,344.9 596.1,344.9 602.3,345.0 608.6,345.0 614.8,345.1 621.1,345.1 627.4,345.2 633.6,345.2 639.9,345.3 646.2,345.3 652.4,345.4 658.7,345.4 664.9,345.5 671.2,345.5 677.5,345.5 683.7,345.6 690.0,345.6" fill="none" stroke="#d73a49" stroke-width="2" />
<text x="560" y="102" font-size="13" font-family="Arial" fill="#d73a49">validation MSE</text>
<text x="380" y="425" text-anchor="middle" font-size="14" font-family="Arial">epoch</text>
<text x="20" y="210" text-anchor="middle" font-size="14" font-family="Arial" transform="rotate(-90 20 210)">MSE</text>
</svg>