<svg xmlns="http://www.w3.org/2000/svg" width="760" height="460" viewBox="0 0 760 460">
<rect width="100%" height="100%" fill="white" />
<text x="380" y="28" text-anchor="middle" font-size="20" font-family="Arial">Tiny ReLU Network on sin(x)</text>
<rect x="70" y="50" width="620" height="320" fill="none" stroke="#222" />
<polyline points="70.0,201.4 71.6,199.4 73.1,197.3 74.7,195.3 76.2,193.3 77.8,191.2 79.3,189.2 80.9,187.2 82.4,185.2 84.0,183.1 85.5,181.1 87.1,179.1 88.6,177.1 90.2,175.1 91.8,173.1 93.3,171.1 94.9,169.2 96.4,167.2 98.0,165.2 99.5,163.3 101.1,161.3 102.6,159.4 104.2,157.5 105.7,155.6 107.3,153.7 108.8,151.8 110.4,149.9 112.0,148.1 113.5,146.2 115.1,144.4 116.6,142.5 118.2,140.7 119.7,139.0 121.3,137.2 122.8,135.4 124.4,133.7 125.9,131.9 127.5,130.2 129.0,128.5 130.6,126.9 132.2,125.2 133.7,123.6 135.3,122.0 136.8,120.4 138.4,118.8 139.9,117.2 141.5,115.7 143.0,114.2 144.6,112.7 146.1,111.2 147.7,109.8 149.2,108.3 150.8,106.9 152.4,105.6 153.9,104.2 155.5,102.9 157.0,101.6 158.6,100.3 160.1,99.0 161.7,97.8 163.2,96.6 164.8,95.4 166.3,94.3 167.9,93.1 169.4,92.0 171.0,91.0 172.6,89.9 174.1,88.9 175.7,87.9 177.2,86.9 178.8,86.0 180.3,85.1 181.9,84.2 183.4,83.4 185.0,82.6 186.5,81.8 188.1,81.0 189.6,80.3 191.2,79.6 192.8,78.9 194.3,78.3 195.9,77.7 197.4,77.1 199.0,76.5 200.5,76.0 202.1,75.5 203.6,75.1 205.2,74.7 206.7,74.3 208.3,73.9 209.8,73.6 211.4,73.3 213.0,73.0 214.5,72.8 216.1,72.6 217.6,72.4 219.2,72.3 220.7,72.2 222.3,72.1 223.8,72.1 225.4,72.1 226.9,72.1 228.5,72.1 230.1,72.2 231.6,72.4 233.2,72.5 234.7,72.7 236.3,72.9 237.8,73.2 239.4,73.4 240.9,73.7 242.5,74.1 244.0,74.5 245.6,74.9 247.1,75.3 248.7,75.8 250.3,76.3 251.8,76.8 253.4,77.4 254.9,78.0 256.5,78.6 258.0,79.2 259.6,79.9 261.1,80.6 262.7,81.4 264.2,82.2 265.8,83.0 267.3,83.8 268.9,84.7 270.5,85.5 272.0,86.5 273.6,87.4 275.1,88.4 276.7,89.4 278.2,90.4 279.8,91.5 281.3,92.6 282.9,93.7 284.4,94.8 286.0,96.0 287.5,97.2 289.1,98.4 290.7,99.7 292.2,100.9 293.8,102.2 295.3,103.5 296.9,104.9 298.4,106.2 300.0,107.6 301.5,109.1 303.1,110.5 304.6,112.0 306.2,113.4 307.7,114.9 309.3,116.5 310.9,118.0 312.4,119.6 314.0,121.2 315.5,122.8 317.1,124.4 318.6,126.0 320.2,127.7 321.7,129.4 323.3,131.1 324.8,132.8 326.4,134.5 327.9,136.3 329.5,138.1 331.1,139.8 332.6,141.6 334.2,143.5 335.7,145.3 337.3,147.1 338.8,149.0 340.4,150.9 341.9,152.7 343.5,154.6 345.0,156.5 346.6,158.4 348.1,160.4 349.7,162.3 351.3,164.3 352.8,166.2 354.4,168.2 355.9,170.1 357.5,172.1 359.0,174.1 360.6,176.1 362.1,178.1 363.7,180.1 365.2,182.1 366.8,184.1 368.3,186.2 369.9,188.2 371.5,190.2 373.0,192.2 374.6,194.3 376.1,196.3 377.7,198.3 379.2,200.4 380.8,202.4 382.3,204.5 383.9,206.5 385.4,208.5 387.0,210.6 388.5,212.6 390.1,214.6 391.7,216.6 393.2,218.7 394.8,220.7 396.3,222.7 397.9,224.7 399.4,226.7 401.0,228.7 402.5,230.7 404.1,232.7 405.6,234.6 407.2,236.6 408.7,238.5 410.3,240.5 411.9,242.4 413.4,244.4 415.0,246.3 416.5,248.2 418.1,250.1 419.6,252.0 421.2,253.8 422.7,255.7 424.3,257.5 425.8,259.3 427.4,261.2 428.9,263.0 430.5,264.7 432.1,266.5 433.6,268.3 435.2,270.0 436.7,271.7 438.3,273.4 439.8,275.1 441.4,276.8 442.9,278.4 444.5,280.0 446.0,281.6 447.6,283.2 449.1,284.8 450.7,286.3 452.3,287.9 453.8,289.4 455.4,290.9 456.9,292.3 458.5,293.7 460.0,295.2 461.6,296.6 463.1,297.9 464.7,299.3 466.2,300.6 467.8,301.9 469.3,303.2 470.9,304.4 472.5,305.6 474.0,306.8 475.6,308.0 477.1,309.1 478.7,310.2 480.2,311.3 481.8,312.4 483.3,313.4 484.9,314.4 486.4,315.4 488.0,316.3 489.5,317.3 491.1,318.1 492.7,319.0 494.2,319.8 495.8,320.6 497.3,321.4 498.9,322.2 500.4,322.9 502.0,323.6 503.5,324.2 505.1,324.8 506.6,325.4 508.2,326.0 509.7,326.5 511.3,327.0 512.9,327.5 514.4,327.9 516.0,328.3 517.5,328.7 519.1,329.1 520.6,329.4 522.2,329.6 523.7,329.9 525.3,330.1 526.8,330.3 528.4,330.4 529.9,330.6 531.5,330.7 533.1,330.7 534.6,330.7 536.2,330.7 537.7,330.7 539.3,330.6 540.8,330.5 542.4,330.4 543.9,330.2 545.5,330.0 547.0,329.8 548.6,329.5 550.2,329.2 551.7,328.9 553.3,328.5 554.8,328.1 556.4,327.7 557.9,327.3 559.5,326.8 561.0,326.3 562.6,325.7 564.1,325.1 565.7,324.5 567.2,323.9 568.8,323.2 570.4,322.5 571.9,321.8 573.5,321.0 575.0,320.2 576.6,319.4 578.1,318.6 579.7,317.7 581.2,316.8 582.8,315.9 584.3,314.9 585.9,313.9 587.4,312.9 589.0,311.8 590.6,310.8 592.1,309.7 593.7,308.5 595.2,307.4 596.8,306.2 598.3,305.0 599.9,303.8 601.4,302.5 603.0,301.2 604.5,299.9 606.1,298.6 607.6,297.2 609.2,295.9 610.8,294.5 612.3,293.0 613.9,291.6 615.4,290.1 617.0,288.6 618.5,287.1 620.1,285.6 621.6,284.0 623.2,282.4 624.7,280.8 626.3,279.2 627.8,277.6 629.4,275.9 631.0,274.3 632.5,272.6 634.1,270.9 635.6,269.1 637.2,267.4 638.7,265.6 640.3,263.9 641.8,262.1 643.4,260.3 644.9,258.4 646.5,256.6 648.0,254.7 649.6,252.9 651.2,251.0 652.7,249.1 654.3,247.2 655.8,245.3 657.4,243.4 658.9,241.5 660.5,239.5 662.0,237.6 663.6,235.6 665.1,233.6 666.7,231.7 668.2,229.7 669.8,227.7 671.4,225.7 672.9,223.7 674.5,221.7 676.0,219.7 677.6,217.7 679.1,215.6 680.7,213.6 682.2,211.6 683.8,209.5 685.3,207.5 686.9,205.5 688.4,203.4 690.0,201.4" fill="none" stroke="#1f6feb" stroke-width="2" />
<text x="560" y="80" font-size="13" font-family="Arial" fill="#1f6feb">true sin(x)</text>
<polyline points="70.0,152.5 71.6,151.7 73.1,150.8 74.7,149.9 76.2,149.1 77.8,148.2 79.3,147.3 80.9,146.4 82.4,145.5 84.0,144.7 85.5,143.8 87.1,142.9 88.6,142.0 90.2,141.2 91.8,140.3 93.3,139.4 94.9,138.5 96.4,137.6 98.0,136.8 99.5,135.9 101.1,135.0 102.6,134.1 104.2,133.2 105.7,132.4 107.3,131.5 108.8,130.6 110.4,129.7 112.0,128.9 113.5,128.0 115.1,127.1 116.6,126.2 118.2,125.3 119.7,124.5 121.3,123.6 122.8,122.7 124.4,121.8 125.9,120.9 127.5,120.1 129.0,119.2 130.6,118.3 132.2,117.4 133.7,116.6 135.3,115.7 136.8,114.8 138.4,113.9 139.9,113.0 141.5,112.2 143.0,111.8 144.6,111.6 146.1,111.4 147.7,111.2 149.2,111.0 150.8,110.8 152.4,110.6 153.9,110.4 155.5,110.2 157.0,110.0 158.6,109.8 160.1,109.6 161.7,109.5 163.2,109.3 164.8,109.1 166.3,108.9 167.9,108.7 169.4,108.5 171.0,108.3 172.6,108.1 174.1,107.9 175.7,107.7 177.2,107.5 178.8,107.3 180.3,107.2 181.9,107.0 183.4,106.8 185.0,106.6 186.5,106.4 188.1,106.2 189.6,106.0 191.2,105.8 192.8,105.6 194.3,105.4 195.9,105.2 197.4,105.0 199.0,104.8 200.5,104.7 202.1,104.5 203.6,104.3 205.2,104.1 206.7,104.0 208.3,104.2 209.8,105.0 211.4,105.8 213.0,106.6 214.5,107.3 216.1,108.1 217.6,108.9 219.2,109.7 220.7,110.5 222.3,111.3 223.8,112.1 225.4,112.8 226.9,113.6 228.5,114.4 230.1,115.2 231.6,116.0 233.2,116.8 234.7,117.6 236.3,118.4 237.8,119.1 239.4,119.9 240.9,120.7 242.5,121.5 244.0,122.3 245.6,123.1 247.1,123.9 248.7,124.6 250.3,125.4 251.8,126.2 253.4,127.0 254.9,127.8 256.5,128.6 258.0,129.4 259.6,130.1 261.1,130.9 262.7,131.7 264.2,132.5 265.8,133.3 267.3,134.1 268.9,134.9 270.5,135.6 272.0,136.4 273.6,137.2 275.1,138.0 276.7,138.8 278.2,139.6 279.8,140.4 281.3,141.2 282.9,141.9 284.4,142.7 286.0,143.5 287.5,144.3 289.1,145.1 290.7,145.9 292.2,146.7 293.8,147.4 295.3,148.2 296.9,149.0 298.4,149.8 300.0,150.6 301.5,151.4 303.1,152.2 304.6,152.9 306.2,153.7 307.7,154.5 309.3,155.3 310.9,156.1 312.4,156.9 314.0,157.7 315.5,158.5 317.1,159.2 318.6,160.0 320.2,160.8 321.7,161.6 323.3,162.4 324.8,163.2 326.4,164.0 327.9,164.7 329.5,165.5 331.1,166.3 332.6,167.1 334.2,167.9 335.7,168.7 337.3,169.5 338.8,170.2 340.4,171.0 341.9,171.8 343.5,172.6 345.0,173.4 346.6,174.2 348.1,175.0 349.7,175.7 351.3,176.5 352.8,177.3 354.4,178.1 355.9,178.9 357.5,179.7 359.0,180.5 360.6,181.3 362.1,182.0 363.7,182.8 365.2,183.6 366.8,184.4 368.3,185.2 369.9,186.0 371.5,186.8 373.0,187.5 374.6,188.3 376.1,189.1 377.7,189.9 379.2,190.7 380.8,191.5 382.3,192.3 383.9,193.0 385.4,193.8 387.0,194.6 388.5,195.4 390.1,196.2 391.7,197.0 393.2,197.8 394.8,198.5 396.3,199.3 397.9,200.1 399.4,200.9 401.0,201.7 402.5,202.5 404.1,203.3 405.6,204.1 407.2,204.8 408.7,205.6 410.3,206.4 411.9,207.2 413.4,208.0 415.0,208.8 416.5,209.6 418.1,210.3 419.6,211.1 421.2,211.9 422.7,212.7 424.3,213.5 425.8,214.3 427.4,215.1 428.9,215.8 430.5,216.6 432.1,217.4 433.6,218.2 435.2,219.0 436.7,219.8 438.3,220.6 439.8,221.3 441.4,222.1 442.9,222.9 444.5,223.7 446.0,224.5 447.6,225.3 449.1,226.1 450.7,226.9 452.3,227.6 453.8,228.4 455.4,229.2 456.9,230.0 458.5,230.8 460.0,231.6 461.6,232.4 463.1,233.1 464.7,233.9 466.2,234.7 467.8,235.5 469.3,236.3 470.9,237.1 472.5,237.9 474.0,238.6 475.6,239.4 477.1,240.2 478.7,241.0 480.2,241.8 481.8,242.6 483.3,243.4 484.9,244.1 486.4,244.9 488.0,245.7 489.5,246.5 491.1,247.3 492.7,248.1 494.2,248.9 495.8,249.7 497.3,250.4 498.9,251.2 500.4,252.0 502.0,252.8 503.5,253.6 505.1,254.4 506.6,255.2 508.2,255.9 509.7,256.7 511.3,257.5 512.9,258.3 514.4,259.1 516.0,259.9 517.5,260.7 519.1,261.4 520.6,262.2 522.2,263.0 523.7,263.8 525.3,264.6 526.8,265.4 528.4,266.2 529.9,266.9 531.5,267.7 533.1,268.5 534.6,269.3 536.2,270.1 537.7,270.9 539.3,271.7 540.8,272.5 542.4,273.2 543.9,274.0 545.5,274.8 547.0,275.6 548.6,276.4 550.2,277.2 551.7,278.0 553.3,278.7 554.8,279.5 556.4,280.3 557.9,281.1 559.5,281.9 561.0,282.7 562.6,283.5 564.1,284.2 565.7,285.0 567.2,285.8 568.8,286.6 570.4,287.4 571.9,288.2 573.5,289.0 575.0,289.8 576.6,290.5 578.1,291.3 579.7,292.1 581.2,292.9 582.8,293.7 584.3,294.5 585.9,295.3 587.4,296.0 589.0,296.8 590.6,297.6 592.1,298.4 593.7,299.2 595.2,300.0 596.8,300.8 598.3,301.5 599.9,302.3 601.4,303.1 603.0,303.9 604.5,304.7 606.1,305.5 607.6,306.3 609.2,307.0 610.8,307.8 612.3,308.6 613.9,309.4 615.4,310.2 617.0,311.0 618.5,311.8 620.1,312.6 621.6,313.3 623.2,314.1 624.7,314.9 626.3,315.7 627.8,316.5 629.4,317.3 631.0,318.1 632.5,318.8 634.1,319.6 635.6,320.4 637.2,321.2 638.7,322.0 640.3,322.8 641.8,323.6 643.4,324.3 644.9,325.1 646.5,325.9 648.0,326.7 649.6,327.5 651.2,328.3 652.7,329.1 654.3,329.8 655.8,330.6 657.4,331.4 658.9,332.2 660.5,333.0 662.0,333.8 663.6,334.6 665.1,335.4 666.7,336.1 668.2,336.9 669.8,337.7 671.4,338.5 672.9,339.3 674.5,340.1 676.0,340.9 677.6,341.6 679.1,342.4 680.7,343.2 682.2,344.0 683.8,344.8 685.3,345.6 686.9,346.4 688.4,347.1 690.0,347.9" fill="none" stroke="#d73a49" stroke-width="2" />
<text x="560" y="102" font-size="13" font-family="Arial" fill="#d73a49">ReLU net</text>
<text x="380" y="425" text-anchor="middle" font-size="14" font-family="Arial">x</text>
<text x="20" y="210" text-anchor="middle" font-size="14" font-family="Arial" transform="rotate(-90 20 210)">y</text>
</svg>